<svg width="256" height="79" viewBox="0 0 256 79" fill="none" xmlns="http://www.w3.org/2000/svg">
<path d="M247.5 60L254 67.5C248.58 73.4803 244.774 75.5958 236.5 77C225.141 77.0059 220.07 74.9151 213 68C208.872 62.3222 207.631 58.1937 207.5 49C207.797 39.9791 209.122 35.4968 214.5 29C220.466 23.9475 224.428 22.2507 233 22C239.587 22.5902 242.767 23.8897 247.5 28C251.936 32.1674 253.4 35.5187 255 42.5V53.5L221.5 54C222.969 60.7517 225.017 63.4997 231.5 66C240.24 66.0247 243.446 64.5445 247 60M1.5 76V5H31C45.7767 8.05529 50.8669 11.6602 52.5 22.5C52.1284 31.5163 49.8337 35.1686 42.5 39.5C50.618 42.8932 53.6597 46.3092 54 57.5C52.8232 69.4833 47.4196 73.0986 32.5 76H1.5ZM16 64.5V45H31C36.9616 45.0752 39.5 48.5 39.5 55C39.5 61.5 35.5 64 31 64.5C26.5 65 16 64.5 16 64.5ZM16 35V16.5H27C34.5451 16.6024 37 18 38 25C39 32 31 35 27 35C23 35 20.2958 35 16 35ZM72.5 2.5C66.8036 2.22073 64 6 64 9.5C64 13 66.7978 16.8289 72 16.5C77.2022 16.1711 79.9806 13.2641 80 9.5C80.0194 5.73616 78.1964 2.77927 72.5 2.5ZM65 23H79V76H65V23ZM91 23V76H105C105.493 76.0011 103.597 46.3498 105 41.1743C106.403 35.9987 110.502 35.3325 120.5 36L121 23C112.953 21.0652 109.314 22.4171 104.5 29.5L104 23H91ZM157.5 1V28C152.034 23.0428 149.282 21.6678 145 22C137.808 22.8434 135.169 23.8674 132.5 26.5C126.837 32.7262 124.849 37.6141 124 49.5C125.163 62.0663 127.201 66.8076 132.5 72.5C143.506 79.0183 149.204 79.3818 158 70.5L159 75.5H171.5V1H157.5ZM157.5 39V60.5C154.321 64.5818 152.464 65.846 149 66C141.605 65.6823 138.78 62.8386 138.5 49.5C139.007 37.6637 141.147 34.0579 149 33C153.266 33.8222 155.102 35.178 157.5 39ZM183.5 76V23.1964H197.5V76H183.5ZM191 2.5C185.304 2.22073 182.5 6 182.5 9.5C182.5 13 185.298 16.8289 190.5 16.5C195.702 16.1711 198.481 13.2641 198.5 9.5C198.519 5.73616 196.696 2.77927 191 2.5ZM221.5 44.5C223.5 36.1526 225.5 33 232 33C238.5 33 240.838 36.0846 241.5 44.5H221.5Z" stroke="#B269FB" stroke-width="2"/>
</svg>
