<svg width="315" height="315" viewBox="0 0 315 315" fill="none" xmlns="http://www.w3.org/2000/svg">
<g clip-path="url(#clip0_1_5)">
<path d="M315 157.5C315.028 178.821 310.712 199.924 302.316 219.521L301.794 220.724C287.592 253.034 262.965 279.649 231.851 296.312C200.738 312.974 164.936 318.723 130.17 312.637C129.225 312.47 128.28 312.296 127.337 312.116C117.595 310.227 108.056 307.414 98.8476 303.714C97.3518 303.113 95.8669 302.49 94.3928 301.845C93.3863 301.407 92.3798 300.955 91.3826 300.49C64.1041 287.847 41.0083 267.669 24.8176 242.335C8.62685 217.001 0.016014 187.566 0 157.5C0 70.5162 70.5162 0 157.5 0C244.484 0 315 70.5162 315 157.5Z" fill="#B269FB"/>
<path opacity="0.2" d="M130.17 312.637C129.225 312.47 128.28 312.296 127.337 312.116C126.722 294.264 124.611 257.624 117.412 219.251C113.475 198.25 108.009 176.722 100.427 157.477C97.8299 150.818 94.8632 144.309 91.5411 137.98C83.8804 123.512 74.5888 111.331 63.3215 103.079L64.9804 100.814C74.3512 107.682 82.7729 117.325 90.2456 129.742C92.487 133.46 94.6398 137.427 96.7041 141.643C98.9175 146.153 101.028 150.942 103.037 156.009C104.318 159.233 105.556 162.57 106.751 166.018C111.951 180.99 116.371 198.073 120.012 217.266C120.818 221.506 121.586 225.851 122.314 230.299C127.957 264.768 129.658 296.636 130.17 312.637Z" fill="black"/>
<path opacity="0.2" d="M94.3928 301.845C93.3863 301.407 92.3798 300.955 91.3826 300.489C90.4087 289.912 88.6194 276.79 85.3482 264.334C83.9155 258.74 82.0762 253.258 79.845 247.932C76.1126 239.195 71.2804 231.767 65.0316 227.187L66.6905 224.927C73.2328 229.717 78.2793 237.289 82.1796 246.147C86.5737 256.129 89.5047 267.745 91.4572 278.845C92.9063 287.088 93.8197 295.052 94.3928 301.845Z" fill="black"/>
<path opacity="0.2" d="M47.6515 103.014C55.3949 103.014 61.6721 96.7363 61.6721 88.9929C61.6721 81.2496 55.3949 74.9724 47.6515 74.9724C39.9082 74.9724 33.631 81.2496 33.631 88.9929C33.631 96.7363 39.9082 103.014 47.6515 103.014Z" fill="black"/>
<path opacity="0.2" d="M52.1667 223.706C59.9101 223.706 66.1873 217.428 66.1873 209.685C66.1873 201.942 59.9101 195.665 52.1667 195.665C44.4234 195.665 38.1461 201.942 38.1461 209.685C38.1461 217.428 44.4234 223.706 52.1667 223.706Z" fill="black"/>
<path opacity="0.2" d="M103.314 112.543C100.341 129.317 106.904 144.506 106.904 144.506C106.904 144.506 118.288 132.498 121.261 115.724C124.234 98.9504 117.671 83.762 117.671 83.762C117.671 83.762 106.287 95.7694 103.314 112.543Z" fill="black"/>
<path opacity="0.2" d="M56.7175 152.361C72.7168 158.211 88.7938 154.457 88.7938 154.457C88.7938 154.457 78.9309 141.217 62.9317 135.367C46.9324 129.516 30.8554 133.271 30.8554 133.271C30.8554 133.271 40.7183 146.51 56.7175 152.361Z" fill="black"/>
<path opacity="0.2" d="M54.0045 259.238C65.2187 263.339 76.5033 260.664 76.5033 260.664C76.5033 260.664 69.6061 251.34 58.3919 247.24C47.1777 243.139 35.8931 245.814 35.8931 245.814C35.8931 245.814 42.7903 255.137 54.0045 259.238Z" fill="black"/>
<path d="M157.177 192.378C191.088 192.378 218.578 164.887 218.578 130.976C218.578 97.0648 191.088 69.5743 157.177 69.5743C123.265 69.5743 95.7749 97.0648 95.7749 130.976C95.7749 164.887 123.265 192.378 157.177 192.378Z" fill="#D0CDE1"/>
<path d="M133.192 177.987C133.192 177.987 140.867 214.444 140.867 218.282C140.867 222.119 177.324 239.389 177.324 239.389L209.944 233.632L221.457 199.094C221.457 199.094 202.269 170.312 202.269 158.799L133.192 177.987Z" fill="#D0CDE1"/>
<path d="M302.316 219.521L301.794 220.724C287.592 253.034 262.965 279.649 231.851 296.312C200.738 312.974 164.936 318.723 130.17 312.637C129.225 312.47 128.28 312.296 127.337 312.116C117.595 310.227 108.056 307.414 98.8476 303.714C97.3518 303.113 95.8669 302.49 94.3928 301.845C93.3863 301.407 92.3798 300.955 91.3826 300.489C82.344 296.302 73.7236 291.266 65.6374 285.448L58.3589 264.334L62.4502 261.212L70.8657 254.787L79.8451 247.932L82.1796 246.147L117.412 219.251L120.012 217.266L138.325 203.287L138.33 203.282C138.33 203.282 158.134 235.551 186.917 225.957C215.7 216.362 215.071 188.851 215.071 188.851L302.316 219.521Z" fill="#2F2E41"/>
<path d="M103.929 81.5067C103.929 81.5067 123.424 39.2679 160.789 49.0153C198.154 58.7627 219.274 73.3839 220.898 88.005C222.523 102.626 220.086 124.558 220.086 124.558C220.086 124.558 216.024 94.5033 190.031 101.002C164.038 107.5 123.424 102.626 123.424 102.626L116.926 161.111C116.926 161.111 109.615 150.551 101.492 157.049C93.3695 163.547 77.9361 94.5033 103.929 81.5067Z" fill="#2F2E41"/>
<path d="M98.8476 303.714C97.3518 303.113 95.8669 302.49 94.3928 301.846C93.3863 301.407 92.3798 300.955 91.3826 300.49C76.4337 293.558 62.662 284.328 50.5677 273.137C54.8501 267.303 58.3589 264.334 58.3589 264.334H87.1422L91.4572 278.845L98.8476 303.714Z" fill="#2F2E41"/>
<path d="M277.102 216.362L301.794 220.724C295.186 235.777 286.262 249.703 275.345 261.995L277.102 216.362Z" fill="#2F2E41"/>
</g>
<defs>
<clipPath id="clip0_1_5">
<rect width="315" height="315" fill="white"/>
</clipPath>
</defs>
</svg>
